<?xml version="1.0" standalone="no"?><!DOCTYPE svg PUBLIC "-//W3C//DTD SVG 1.1//EN" "http://www.w3.org/Graphics/SVG/1.1/DTD/svg11.dtd"><svg t="1593654123822" class="icon" viewBox="0 0 1024 1024" version="1.1" xmlns="http://www.w3.org/2000/svg" p-id="1295" xmlns:xlink="http://www.w3.org/1999/xlink" width="200" height="200"><defs><style type="text/css"></style></defs><path d="M857.6 64c-7.68 0-14.08 2.56-19.2 7.68l-128 129.28c-5.12 5.12-7.68 11.52-7.68 19.2s2.56 14.08 7.68 19.2l19.2 19.2-130.56 128c-5.12 5.12-7.68 11.52-7.68 19.2s2.56 14.08 7.68 19.2c5.12 5.12 11.52 7.68 19.2 7.68 6.4 0 14.08-3.84 19.2-7.68L766.72 294.4l19.2 19.2c5.12 5.12 11.52 7.68 19.2 7.68 6.4 0 14.08-3.84 19.2-7.68l128-129.28c5.12-5.12 7.68-11.52 7.68-19.2 0-6.4-2.56-14.08-7.68-19.2l-74.24-74.24c-3.84-5.12-11.52-7.68-20.48-7.68z" fill="#515151" p-id="1296"></path><path d="M248.32 64c-29.44 0-55.04 5.12-81.92 19.2-16.64 7.68-21.76 29.44-7.68 42.24l89.6 89.6-32 32-90.88-89.6c-5.12-5.12-11.52-7.68-19.2-7.68-10.24 0-19.2 5.12-24.32 16.64-34.56 69.12-24.32 156.16 34.56 213.76 35.84 35.84 81.92 52.48 129.28 52.48 21.76 0 42.24-2.56 60.16-10.24l293.12 293.12c-24.32 65.28-7.68 139.52 42.24 192 35.84 35.84 81.92 52.48 129.28 52.48 29.44 0 55.04-5.12 81.92-19.2 16.64-7.68 21.76-29.44 7.68-42.24l-89.6-89.6 32-32 89.6 89.6c5.12 5.12 11.52 7.68 19.2 7.68 10.24 0 19.2-5.12 24.32-16.64 34.56-69.12 24.32-156.16-34.56-213.76-35.84-35.84-81.92-52.48-129.28-52.48-21.76 0-42.24 2.56-62.72 10.24L417.28 308.48c24.32-65.28 7.68-139.52-42.24-192C341.76 81.92 295.68 64 248.32 64z" fill="#515151" p-id="1297"></path><path d="M330.24 565.76c-12.8 0-26.88 5.12-35.84 16.64L102.4 770.56c-21.76 21.76-21.76 52.48 0 74.24l74.24 74.24c10.24 10.24 24.32 16.64 35.84 16.64s26.88-5.12 35.84-16.64L437.76 729.6c21.76-21.76 21.76-52.48 0-74.24l-74.24-74.24c-5.12-10.24-16.64-15.36-33.28-15.36z" p-id="1298"></path></svg>