<?xml version="1.0" standalone="no"?><!DOCTYPE svg PUBLIC "-//W3C//DTD SVG 1.1//EN" "http://www.w3.org/Graphics/SVG/1.1/DTD/svg11.dtd"><svg t="1597027098669" class="icon" viewBox="0 0 1024 1024" version="1.1" xmlns="http://www.w3.org/2000/svg" p-id="2283" xmlns:xlink="http://www.w3.org/1999/xlink" width="200" height="200"><defs><style type="text/css"></style></defs><path d="M130.43 395.12h24.15V186.17c0-17.14 13.98-31.58 31.59-31.58H424c10.14 0 18.95 4.51 24.82 11.51l110.12 118.7h278.89c17.14 0 31.59 14.21 31.59 31.82v78.51h23.91c17.38 0 32.05 14.21 32.05 31.81 0 2.04-0.44 3.38-0.44 5.2l-51 405.47c-1.13 9.7-6.56 17.84-14 22.8-5.87 5.41-13.77 9.01-22.11 9.01H186.16c-8.57 0-16.24-3.6-22.11-8.57-8.13-5.41-13.54-13.98-14.44-24.15L98.84 430.77c-2.03-17.14 10.14-33.18 27.75-35.65h3.84z m87.32 0h588.03v-46.49H545.4c-8.8 0-17.14-3.84-23.48-10.37L410.45 218.22h-192.7v176.9z m639.49 63.63H166.31l42.86 343.42h605.18l42.89-343.42z" fill="#717071" p-id="2284"></path></svg>