<?xml version="1.0" standalone="no"?><!DOCTYPE svg PUBLIC "-//W3C//DTD SVG 1.1//EN" "http://www.w3.org/Graphics/SVG/1.1/DTD/svg11.dtd"><svg t="1597198351328" class="icon" viewBox="0 0 1024 1024" version="1.1" xmlns="http://www.w3.org/2000/svg" p-id="5185" xmlns:xlink="http://www.w3.org/1999/xlink" width="200" height="200"><defs><style type="text/css"></style></defs><path d="M569.1 354.8c0 11.9 4.1 22.1 12.5 30.3 8.4 8.4 18.5 12.5 30.3 12.5h242.9v471.5c0 11.9-4.1 22.1-12.5 30.3-8.3 8.5-18.4 12.6-30.3 12.6H212c-11.9 0-22.1-4.1-30.3-12.5-8.4-8.4-12.5-18.5-12.5-30.3V154.8c0-11.9 4.1-22.1 12.5-30.3 8.4-8.4 18.5-12.5 30.3-12.5h357.2l-0.1 242.8z m57.1-14.2V129.7c6.6 4.1 11.9 8.4 16.1 12.5l182.2 182.2c4.1 4.1 8.4 9.5 12.5 16.1l-210.8 0.1z" p-id="5186"></path></svg>