<?xml version="1.0" standalone="no"?><!DOCTYPE svg PUBLIC "-//W3C//DTD SVG 1.1//EN" "http://www.w3.org/Graphics/SVG/1.1/DTD/svg11.dtd"><svg t="1597199305099" class="icon" viewBox="0 0 1212 1024" version="1.1" xmlns="http://www.w3.org/2000/svg" p-id="5330" xmlns:xlink="http://www.w3.org/1999/xlink" width="236.71875" height="200"><defs><style type="text/css"></style></defs><path d="M57.742106 208.979592h1096.59951c33.645714 0 59.454694 26.059755 57.65747 58.221714l-39.288164 698.57698C1170.913698 997.940245 1144.247902 1024 1113.130841 1024H98.97378c-31.137959 0-57.803755-26.059755-59.621878-58.221714L0.084637 267.201306C-1.712588 235.039347 24.096392 208.979592 57.742106 208.979592zM146.286759 0h241.643102a146.285714 146.285714 0 0 1 57.636572 11.828245l114.729796 49.172898a20.897959 20.897959 0 0 0 8.233795 1.692735H1065.796963a20.897959 20.897959 0 0 1 20.897959 20.897959v83.591836a20.897959 20.897959 0 0 1-20.897959 20.89796H146.286759a20.897959 20.897959 0 0 1-20.897959-20.89796V20.897959a20.897959 20.897959 0 0 1 20.897959-20.897959z" p-id="5331"></path></svg>