<?xml version="1.0" standalone="no"?><!DOCTYPE svg PUBLIC "-//W3C//DTD SVG 1.1//EN" "http://www.w3.org/Graphics/SVG/1.1/DTD/svg11.dtd"><svg t="1596075779662" class="icon" viewBox="0 0 1024 1024" version="1.1" xmlns="http://www.w3.org/2000/svg" p-id="8864" xmlns:xlink="http://www.w3.org/1999/xlink" width="200" height="200"><defs><style type="text/css"></style></defs><path d="M905 119.2H119.4c-31 0-56.1 25.1-56.1 56.1v476.9c0 31 25.1 56.1 56.1 56.1h56.1v-56.1h-56.1V175.3H905v476.9H400v15.6L287.8 801.7V652.3h-56.1v252.5l44.1-1.5 163.5-194.9H905c31 0 56.1-25.1 56.1-56.1v-477c0-31-25.1-56.1-56.1-56.1zM343.9 399.8c0-31-25.1-56.1-56.1-56.1s-56.1 25.1-56.1 56.1 25.1 56.1 56.1 56.1 56.1-25.1 56.1-56.1z m224.4 0c0-31-25.1-56.1-56.1-56.1s-56.1 25.1-56.1 56.1 25.1 56.1 56.1 56.1 56.1-25.1 56.1-56.1z m224.5 0c0-31-25.1-56.1-56.1-56.1s-56.1 25.1-56.1 56.1 25.1 56.1 56.1 56.1c30.9 0 56.1-25.1 56.1-56.1z" fill="#2c2c2c" p-id="8865"></path></svg>