<?xml version="1.0" standalone="no"?><!DOCTYPE svg PUBLIC "-//W3C//DTD SVG 1.1//EN" "http://www.w3.org/Graphics/SVG/1.1/DTD/svg11.dtd"><svg t="1596613047610" class="icon" viewBox="0 0 1024 1024" version="1.1" xmlns="http://www.w3.org/2000/svg" p-id="2792" xmlns:xlink="http://www.w3.org/1999/xlink" width="200" height="200"><defs><style type="text/css"></style></defs><path d="M925.2 220H100.4c-18.6 0-33.9-15.2-33.9-33.9s15.2-33.9 33.9-33.9h824.7c18.6 0 33.9 15.2 33.9 33.9 0 18.6-15.2 33.9-33.8 33.9z m-2 323.8H98.4c-18.6 0-33.9-15.2-33.9-33.9S79.7 476 98.4 476h824.7c18.6 0 33.9 15.2 33.9 33.9s-15.2 33.9-33.8 33.9z m2.9 324.8H101.4c-18.6 0-33.9-15.2-33.9-33.9s15.2-33.9 33.9-33.9h824.7c18.6 0 33.9 15.2 33.9 33.9s-15.2 33.9-33.9 33.9z m0 0" p-id="2793" fill="#BFBFBF"></path></svg>