<?xml version="1.0" standalone="no"?><!DOCTYPE svg PUBLIC "-//W3C//DTD SVG 1.1//EN" "http://www.w3.org/Graphics/SVG/1.1/DTD/svg11.dtd"><svg t="1596075307750" class="icon" viewBox="0 0 1024 1024" version="1.1" xmlns="http://www.w3.org/2000/svg" p-id="6494" xmlns:xlink="http://www.w3.org/1999/xlink" width="200" height="200"><defs><style type="text/css"></style></defs><path d="M851.49 957.13H172.71c-33.92 0-61.51-27.6-61.51-61.52V128.63c0-33.92 27.59-61.51 61.51-61.51h458.71a61.55 61.55 0 0 1 40.14 14.9l220.06 189.47A61.455 61.455 0 0 1 913 318.11V895.6c0 33.93-27.59 61.53-61.51 61.53zM172.71 127.99l-0.64 767.62 679.42 0.65 0.64-578.15-220.3-189.96a0.645 0.645 0 0 0-0.42-0.16h-458.7z" fill="#666666" p-id="6495"></path><path d="M411.36 125.13h63.53v280.05h-63.53zM411.36 704.16h63.53v200.42h-63.53zM592.555 586.517v-63.53h264.07v63.53zM165.952 586.514v-63.53h127.68v63.53zM557.35 668.97H328.91V440.53h228.44v228.44zM389.77 608.1h106.71V501.39H389.77V608.1z" fill="#666666" p-id="6496"></path></svg>