<?xml version="1.0" standalone="no"?><!DOCTYPE svg PUBLIC "-//W3C//DTD SVG 1.1//EN" "http://www.w3.org/Graphics/SVG/1.1/DTD/svg11.dtd"><svg t="1596075264520" class="icon" viewBox="0 0 1024 1024" version="1.1" xmlns="http://www.w3.org/2000/svg" p-id="5221" xmlns:xlink="http://www.w3.org/1999/xlink" width="200" height="200"><defs><style type="text/css"></style></defs><path d="M511.995908 20.467252c66.365871 0 130.73566 12.993457 191.320977 38.619213 58.528872 24.756116 111.098147 60.199606 156.246829 105.348287s80.593194 97.716933 105.348287 156.246829c25.625757 60.58634 38.619213 124.956129 38.619213 191.320977 0 66.365871-12.993457 130.73566-38.619213 191.320977-24.756116 58.529895-60.199606 111.098147-105.348287 156.246829s-97.716933 80.593194-156.246829 105.348287c-60.585317 25.625757-124.955106 38.619213-191.320977 38.619213s-130.73566-12.993457-191.320977-38.619213c-58.528872-24.756116-111.098147-60.199606-156.246829-105.348287s-80.592171-97.716933-105.348287-156.246829c-25.625757-60.585317-38.619213-124.955106-38.619213-191.320977s12.993457-130.73566 38.619213-191.320977c24.756116-58.528872 60.199606-111.098147 105.348287-156.246829s97.716933-80.593194 156.246829-105.348287C381.261271 33.460709 445.63106 20.467252 511.995908 20.467252M511.995908 0.005116C229.227596 0.005116-0.001535 229.234247-0.001535 512.002558s229.229131 511.997442 511.997442 511.997442 511.997442-229.229131 511.997442-511.997442S794.764219 0.005116 511.995908 0.005116L511.995908 0.005116zM489.063991 489.410313c2.027798 0 4.077081-0.712082 5.724283-2.152617l196.378194-172.172509-11.451635-13.048704L483.336639 474.189553c-3.609521 3.159354-3.97477 8.642183-0.80007 12.251704C484.255389 488.403576 486.651505 489.410313 489.063991 489.410313L489.063991 489.410313zM411.062327 789.642035c106.579084 0 170.263392-83.812911 170.263392-164.848088 0-23.356506-5.587186-49.089689-13.847751-65.800093l78.470247-39.235124c2.931201-1.47532 4.787117-4.478139 4.787117-7.75515l0-69.41166 52.058745 0c0.190298 0 1.770998-0.103334 1.962319-0.103334 11.554969-0.780631 15.01-4.4587 15.391619-17.247535l0-69.41166 52.058745 0c2.236512 0 3.781403 0.244523 4.823949 0.400035 2.096346 0.328417 6.020984 0.937166 9.420768-2.117831 3.506187-3.121499 3.349652-7.07683 3.211532-10.56767-0.036832-1.250237-0.10538-2.896415-0.10538-5.064379l0-78.626783c0-14.054418-11.435265-25.489684-25.489684-25.489684l-67.240627 0c-6.143757 0-12.114608 2.237535-16.816807 6.317685L451.183461 441.275183c-11.260314-2.255951-28.283788-5.187152-40.135458-5.187152-97.470364 0-176.771375 79.30101-176.771375 176.768305C234.275605 710.325678 313.576616 789.642035 411.062327 789.642035L411.062327 789.642035zM411.062327 453.436854c8.693339 0 23.581589 2.084069 40.84754 5.693589 2.690771 0.590333 5.449067-0.174951 7.496304-1.962319l232.023236-203.405915c1.509083-1.318785 3.433547-2.046214 5.395865-2.046214l67.240627 0c4.493485 0 8.139838 3.643283 8.139838 8.135745l0 78.626783-60.735714 0c-4.789163 0-8.676969 3.886783-8.676969 8.6739l0 78.088629-60.731621 0c-4.790186 0-8.676969 3.886783-8.676969 8.6739l0 72.726526-81.973365 40.98566c-2.274366 1.127464-3.939984 3.227902-4.545664 5.692566-0.608749 2.461595-0.10538 5.083818 1.387333 7.149471 7.6334 10.532885 15.720036 36.682472 15.720036 64.324772 0 72.499396-57.192695 147.498242-152.909454 147.498242-87.906362 0-159.432783-71.527445-159.432783-159.436876C251.629543 524.947928 323.155965 453.436854 411.062327 453.436854L411.062327 453.436854zM381.772824 702.879506c33.489356 0 60.731621-27.243289 60.731621-60.731621 0-33.492425-27.243289-60.735714-60.731621-60.735714-33.492425 0-60.735714 27.243289-60.735714 60.735714C321.038134 675.637241 348.281422 702.879506 381.772824 702.879506L381.772824 702.879506zM381.772824 598.766109c23.908983 0 43.381776 19.4687 43.381776 43.381776 0 23.908983-19.471769 43.381776-43.381776 43.381776-23.913076 0-43.381776-19.471769-43.381776-43.381776C338.392072 618.234809 357.860772 598.766109 381.772824 598.766109L381.772824 598.766109z" p-id="5222"></path></svg>